<?xml version="1.0" standalone="no"?><!DOCTYPE svg PUBLIC "-//W3C//DTD SVG 1.1//EN" "http://www.w3.org/Graphics/SVG/1.1/DTD/svg11.dtd"><svg t="1542667612425" class="icon" style="" viewBox="0 0 1024 1024" version="1.1" xmlns="http://www.w3.org/2000/svg" p-id="14687" xmlns:xlink="http://www.w3.org/1999/xlink" width="16" height="16"><defs><style type="text/css"></style></defs><path d="M512 720.004c-109.594 0-268.062-158.632-286.202-327.122a7.992 7.992 0 0 1 7.094-8.812c4.632-0.406 8.342 2.704 8.812 7.094 8.148 75.66 46.88 155.584 106.282 219.298 53.802 57.7 116.65 93.542 164.014 93.542 102.306 0 271.984-166.6 271.984-343.978 0-4.422 3.578-8 8-8a7.994 7.994 0 0 1 7.998 8c0 191.722-179.488 359.978-287.982 359.978z" fill="" p-id="14688"></path><path d="M951.972 1023.968H72.028c-4.422 0-8-3.578-8-8v-95.992c0-68.652 35.568-94.964 101.19-119.494 10.288-3.844 22.662-7.782 36.13-12.044 63.582-20.204 150.662-47.888 150.662-108.448 0-4.422 3.578-8 8-8s8 3.578 8 8c0 72.276-93.526 101.994-161.818 123.68-13.186 4.204-25.304 8.046-35.372 11.812-61.512 22.998-90.792 44.496-90.792 104.494v87.994h863.948v-87.994c0-59.998-29.28-81.496-90.792-104.494-10.062-3.766-22.188-7.624-35.39-11.812-68.276-21.686-161.8-51.404-161.8-123.68 0-4.422 3.578-8 7.998-8 4.422 0 8 3.578 8 8 0 60.558 87.072 88.244 150.646 108.432 13.484 4.28 25.86 8.216 36.138 12.06 65.636 24.53 101.198 50.842 101.198 119.494v95.992a8 8 0 0 1-8.002 8z" fill="" p-id="14689"></path><path d="M360.01 687.988c-4.422 0-8-3.576-8-7.998v-46.014c0-4.422 3.578-8 8-8s8 3.578 8 8v46.014a7.994 7.994 0 0 1-8 7.998zM663.99 687.988a7.994 7.994 0 0 1-7.998-7.998V633.96c0-4.422 3.578-8 7.998-8 4.422 0 8 3.578 8 8v46.03a7.994 7.994 0 0 1-8 7.998zM823.98 328.012a7.994 7.994 0 0 1-7.998-8C815.982 152.396 679.616 16.03 512 16.03S208.018 152.396 208.018 320.012c0 4.422-3.578 8-8 8-4.422 0-8-3.578-8-8 0-176.434 143.546-319.98 319.98-319.98 176.442 0 319.98 143.546 319.98 319.98a7.992 7.992 0 0 1-7.998 8z" fill="" p-id="14690"></path><path d="M903.976 639.992a7.986 7.986 0 0 1-4.438-1.344c-98.698-65.808-84.212-308.84-83.542-319.152 0.296-4.422 4.452-7.602 8.498-7.468a8.006 8.006 0 0 1 7.468 8.5c-0.156 2.43-14.594 244.11 76.45 304.808a8 8 0 0 1-4.436 14.656z" fill="" p-id="14691"></path><path d="M695.988 703.988c-4.422 0-8-3.578-8-8s3.578-8 8-8c123.446 0 202.222-61.622 203.004-62.246a7.976 7.976 0 0 1 11.234 1.25c2.75 3.468 2.188 8.5-1.25 11.25-3.358 2.688-83.684 65.746-212.988 65.746zM120.032 639.992a7.99 7.99 0 0 1-6.664-3.562 7.994 7.994 0 0 1 2.218-11.094c91.096-60.73 76.606-302.378 76.45-304.808a8.01 8.01 0 0 1 7.468-8.5c4.35-0.188 8.218 3.062 8.5 7.468 0.664 10.312 15.164 253.344-83.542 319.152a8.004 8.004 0 0 1-4.43 1.344z" fill="" p-id="14692"></path><path d="M328.012 703.988c-129.312 0-209.628-63.058-212.988-65.746-3.444-2.75-4-7.782-1.25-11.25a8.016 8.016 0 0 1 11.242-1.25c0.782 0.624 79.558 62.246 202.996 62.246 4.422 0 8 3.578 8 8s-3.578 8-8 8zM201.012 367.352a8 8 0 0 1-0.538-15.984c210.346-14.312 347.15-77.674 424.864-128.304 84.136-54.808 119.072-106.916 119.416-107.44 2.438-3.694 7.42-4.702 11.076-2.28a8 8 0 0 1 2.296 11.07c-1.406 2.148-145.708 214.964-556.558 242.922-0.19 0.008-0.376 0.016-0.556 0.016z" fill="" p-id="14693"></path><path d="M823.574 336.496c-0.218 0-0.422-0.008-0.64-0.024-109.82-8.584-207.908-88.448-212.034-91.846a7.994 7.994 0 0 1-1.078-11.256c2.812-3.438 7.86-3.868 11.25-1.094 0.984 0.804 98.4 80.064 203.112 88.244a7.994 7.994 0 0 1 7.344 8.602 7.998 7.998 0 0 1-7.954 7.374zM512.876 895.976c-105.76 0-161.146-35.966-188.98-66.136-30.67-33.232-35.608-66.48-35.802-67.886-0.61-4.344 2.43-8.376 6.796-9 4.25-0.688 8.398 2.406 9.046 6.782 0.71 4.906 19.726 120.244 208.94 120.244 189.098 0 206.536-115.244 207.176-120.15 0.578-4.376 4.61-7.532 8.952-6.906a7.994 7.994 0 0 1 6.922 8.922c-0.172 1.39-4.656 34.67-34.904 67.95-27.454 30.182-82.372 66.18-188.146 66.18zM807.982 1023.968c-4.422 0-8-3.578-8-8V792.14c0-4.422 3.578-8 8-8s8 3.578 8 8v223.828c0 4.422-3.578 8-8 8zM216.018 1023.968h-0.008c-4.42 0-8-3.594-7.992-8l0.282-223.922a8 8 0 0 1 8-7.984h0.008c4.422 0.016 8 3.594 7.992 8.016l-0.282 223.89a8.006 8.006 0 0 1-8 8z" fill="" p-id="14694"></path></svg>