<?xml version="1.0" standalone="no"?><!DOCTYPE svg PUBLIC "-//W3C//DTD SVG 1.1//EN" "http://www.w3.org/Graphics/SVG/1.1/DTD/svg11.dtd"><svg t="1542666833997" class="icon" style="" viewBox="0 0 1024 1024" version="1.1" xmlns="http://www.w3.org/2000/svg" p-id="1160" xmlns:xlink="http://www.w3.org/1999/xlink" width="16" height="16"><defs><style type="text/css"></style></defs><path d="M811.008 770.048q-9.216 1.024-19.456 3.584t-18.432 5.632q-10.24 4.096-19.456 9.216-2.048-11.264 1.024-22.528 2.048-10.24 8.192-21.504t20.48-22.528q25.6-17.408 60.928-21.504t66.048 8.192 48.128 42.496 6.144 82.432q-9.216 41.984-37.888 76.288t-76.288 52.736-112.128 17.408-144.384-28.672q-55.296-19.456-87.04-48.64t-47.616-59.904-18.944-57.856-1.024-42.496 12.8-37.888 22.016-43.008q13.312-24.576 29.696-50.176 8.192-13.312 14.336-25.6 5.12-11.264 8.192-22.528t0-21.504q-10.24-26.624-25.6-40.96t-29.696-21.504q-17.408-7.168-35.84-8.192-25.6-1.024-47.104-6.144-18.432-5.12-36.352-13.312t-26.112-25.6q-9.216-17.408-7.68-35.84t7.168-36.352 11.776-34.304 6.144-28.672q0-32.768-34.816-46.08-45.056-11.264-67.584-9.216t-31.744 8.704-9.216 12.288 0 1.536q0 14.336 3.584 36.864t-3.584 43.008q-5.12 12.288-13.824 23.04t-14.848 19.968q-8.192 13.312-13.824 23.04t-4.608 12.8q2.048 4.096 9.728 5.632t11.776 3.584q5.12 3.072 6.656 9.728t7.68 11.776q10.24 10.24 12.288 17.408 1.024 4.096 0 7.168 0 8.192 1.024 19.456 1.024 9.216 2.56 20.992t4.608 23.04q6.144 26.624 14.336 37.376t19.968 13.312 28.16 0.512 39.936-2.048q17.408 1.024 35.84 1.024t32.768 8.192 22.528 22.528 13.312 28.672q4.096 17.408 6.144 35.84 3.072 23.552 3.072 47.104 0 20.48-2.048 44.544t-10.24 47.616q-17.408 48.128-51.2 71.68t-72.704 30.72q-40.96 8.192-77.824 2.048t-66.56-20.48-48.64-34.816-23.04-40.96q-3.072-16.384-0.512-32.256t7.68-30.72 12.288-28.16 12.288-25.6q9.216-19.456 11.264-34.304t0-25.088q-2.048-11.264-8.192-20.48-9.216-10.24-19.456-21.504-8.192-10.24-17.408-22.016t-15.36-26.112q-20.48-41.984-21.504-77.824 0-15.36 0.512-37.376t7.68-41.472q6.144-16.384 30.208-43.52t53.76-70.144q6.144-12.288 10.752-25.6t7.168-24.576 3.584-19.456 1.024-11.264q0-10.24-1.024-22.528t-2.048-25.6q0-6.144-1.024-20.48t2.56-31.744 12.8-35.328 28.672-32.256q15.36-11.264 36.352-15.872t39.424-5.632q21.504-1.024 45.056 1.024 19.456-7.168 40.96-11.264 18.432-4.096 43.008-7.168t51.2-3.072q89.088 2.048 149.504 27.136t99.328 61.44 59.392 78.848 29.696 78.848 10.752 61.44 1.536 26.112q1.024 17.408 12.288 31.744t26.112 29.184 30.72 30.208 27.136 33.792q21.504 38.912 23.552 69.632t-8.192 54.272-28.672 40.448-37.376 28.16-34.816 17.408-19.968 8.192q-33.792 15.36-51.712 33.792t-24.064 36.864-2.56 35.84 14.848 29.696q7.168 9.216 18.432 15.36t23.04 9.216 22.528 3.584 17.92-1.536q16.384-3.072 27.136-14.848t12.8-25.088-5.632-22.528-27.136-8.192z" p-id="1161"></path></svg>