<?xml version="1.0" standalone="no"?><!DOCTYPE svg PUBLIC "-//W3C//DTD SVG 1.1//EN" "http://www.w3.org/Graphics/SVG/1.1/DTD/svg11.dtd"><svg t="1542667732080" class="icon" style="" viewBox="0 0 1024 1024" version="1.1" xmlns="http://www.w3.org/2000/svg" p-id="15134" xmlns:xlink="http://www.w3.org/1999/xlink" width="16" height="16"><defs><style type="text/css"></style></defs><path d="M835.657041 804.354777c-6.383768 0.638377-13.405913 1.91513-20.428058 3.830261-7.022145 1.91513-13.405913 3.830261-19.151304 5.745391-7.022145 2.553507-14.04429 6.383768-20.428058 9.575652-1.276754-7.660522-1.276754-15.95942 1.276754-23.619942 1.276754-7.022145 4.468638-14.682667 8.298898-22.343188 4.468638-7.660522 11.490783-15.95942 21.704811-23.619942 17.874551-12.129159 38.940985-19.789681 63.837681-22.343188 24.896695-2.553507 47.878261 0 68.944695 8.298898 21.704811 8.298898 38.302608 23.619942 50.431768 44.686377 12.129159 21.066435 14.04429 49.793391 6.383768 86.180869-6.383768 29.365333-19.789681 56.177159-39.579362 79.797101-19.789681 23.619942-46.601507 42.132869-79.797101 54.900405-33.195594 12.767536-72.136579 19.151304-117.461333 18.512927-44.686377-0.638377-95.118144-10.852406-151.295303-30.00371-38.302608-13.405913-68.944695-30.642087-91.287883-51.070145-22.343188-20.428058-38.940985-41.494492-49.793391-62.560927-10.852406-21.704811-17.874551-41.494492-19.789681-60.645797-1.91513-19.151304-2.553507-33.833971-1.276754-44.686377 1.276754-10.852406 5.745391-23.619942 13.405913-39.579362 7.660522-15.95942 15.321043-30.642087 22.981565-44.686377 9.575652-17.236174 19.789681-34.472348 31.280464-52.346898 5.745391-9.575652 10.852406-18.512927 14.682667-26.811826 3.830261-7.660522 6.383768-15.95942 8.298898-23.619942 1.91513-7.660522 1.91513-15.321043 0-22.343188-7.022145-18.512927-15.95942-32.557217-26.811826-42.771246-10.852406-10.214029-21.066435-17.236174-31.280464-22.343188-12.129159-5.107014-24.896695-7.660522-37.664232-8.298898-17.874551-0.638377-34.472348-2.553507-49.155014-6.383768-12.767536-3.830261-25.535072-8.298898-38.302608-14.04429-12.767536-5.745391-21.704811-14.682667-27.450203-26.811826-6.383768-12.129159-8.937275-24.896695-8.298898-37.664232 1.276754-12.767536 3.830261-25.535072 7.660522-38.302608 3.830261-12.767536 8.298898-24.258319 12.129159-35.749101 4.468638-11.490783 6.383768-21.704811 6.383768-30.00371 0-22.981565-12.129159-38.940985-36.387478-47.878261-31.280464-7.660522-54.900405-10.852406-70.859826-9.575652-15.95942 1.276754-26.811826 4.468638-33.195594 8.937275-6.383768 4.468638-9.575652 8.937275-9.575652 12.767536l0 1.91513c0 10.214029 1.276754 22.981565 3.830261 38.302608 2.553507 15.95942 1.276754 30.642087-3.830261 44.686377-3.830261 8.298898-8.298898 16.597797-14.682667 24.258319-6.383768 7.660522-11.490783 14.682667-15.321043 21.066435-5.745391 9.575652-10.214029 17.236174-14.682667 24.258319-3.830261 7.022145-5.745391 11.490783-5.107014 13.405913 1.276754 2.553507 5.107014 5.107014 10.214029 5.745391 5.107014 1.276754 9.575652 2.553507 12.129159 3.830261 3.830261 1.91513 5.745391 5.745391 7.022145 10.214029 1.276754 4.468638 3.830261 8.937275 8.298898 12.129159 7.022145 7.022145 11.490783 13.405913 12.767536 18.512927 0.638377 2.553507 0.638377 5.107014 0 7.660522 0 5.745391 0.638377 12.767536 1.276754 20.428058 0.638377 6.383768 1.91513 14.04429 2.553507 21.704811 1.276754 8.298898 2.553507 15.95942 5.107014 24.258319 4.468638 18.512927 9.575652 31.280464 14.682667 38.940985 5.745391 7.660522 12.767536 12.129159 21.066435 14.04429 8.298898 1.91513 17.874551 1.91513 29.365333 0.638377 11.490783-1.276754 25.535072-1.91513 41.494492-1.91513 12.129159 0.638377 24.896695 1.276754 37.664232 1.276754 12.767536 0 24.258319 2.553507 34.472348 8.298898 10.214029 5.745391 17.874551 13.405913 23.619942 23.619942 5.745391 10.214029 10.214029 19.789681 14.04429 30.00371 2.553507 12.129159 5.107014 24.896695 6.383768 37.664232 1.91513 16.597797 3.191884 32.557217 3.191884 49.155014 0 14.04429-0.638377 30.00371-1.91513 46.601507-1.276754 16.597797-5.107014 33.195594-10.852406 49.793391-12.129159 33.833971-30.00371 58.730666-53.623652 74.690086-23.619942 16.597797-49.155014 27.450203-75.96684 31.91884-28.726956 5.745391-55.538782 6.383768-81.073855 1.91513-25.535072-4.468638-49.155014-11.490783-69.583072-21.704811-20.428058-10.214029-37.664232-22.343188-51.070145-36.387478-13.405913-14.04429-21.066435-28.726956-24.258319-42.771246-1.91513-11.490783-2.553507-22.981565-0.638377-33.833971 1.91513-10.852406 4.468638-21.704811 8.298898-31.91884 3.830261-10.214029 7.660522-20.428058 12.767536-29.365333 5.107014-9.575652 9.575652-18.512927 12.767536-26.811826 6.383768-13.405913 10.214029-25.535072 11.490783-35.749101 1.276754-10.214029 1.276754-19.151304 0-26.173449-1.276754-7.660522-4.468638-14.682667-8.298898-21.704811-6.383768-7.022145-13.405913-14.682667-20.428058-22.343188-5.745391-7.022145-11.490783-14.682667-18.512927-22.981565-6.383768-8.298898-11.490783-17.236174-15.95942-27.450203C31.302264 557.94133 23.641742 530.491127 23.003366 505.594431c0-10.852406 0-23.619942 0.638377-38.940985 0.638377-15.321043 3.191884-30.00371 8.298898-43.409623 4.468638-11.490783 14.682667-26.811826 31.280464-45.324753 16.597797-19.151304 35.749101-43.409623 56.177159-73.413333 4.468638-8.298898 8.298898-17.236174 11.490783-26.811826 3.191884-9.575652 5.745391-17.874551 7.660522-25.535072 1.91513-7.660522 3.191884-14.682667 3.830261-20.428058 0.638377-5.745391 1.276754-9.575652 1.276754-11.490783 0-7.022145-0.638377-14.682667-1.276754-23.619942-0.638377-8.298898-1.276754-17.236174-1.91513-26.811826 0-4.468638-0.638377-11.490783-1.276754-21.704811-0.638377-10.214029 0-21.066435 2.553507-33.195594 2.553507-12.129159 7.022145-24.258319 13.405913-37.025855 6.383768-12.767536 16.597797-23.619942 30.00371-33.833971 10.852406-7.660522 23.619942-13.405913 38.302608-16.597797 14.682667-3.191884 28.08858-5.107014 41.494492-5.745391 14.682667-0.638377 30.642087-0.638377 47.239884 1.276754 13.405913-5.107014 28.08858-8.937275 42.771246-11.490783 12.767536-2.553507 28.08858-5.107014 44.686377-7.660522C416.243479 1.276754 434.11803 0 452.630957 0 514.553507 1.276754 566.900405 10.852406 609.033275 28.726956c42.132869 17.236174 76.605217 38.940985 104.05542 64.476058 26.811826 25.535072 47.878261 52.985275 61.92255 82.350608 14.04429 29.365333 24.896695 56.815536 31.280464 82.350608 6.383768 25.535072 10.214029 46.601507 11.490783 64.476058 1.276754 17.236174 1.91513 26.811826 1.91513 27.450203 0.638377 12.129159 5.107014 22.981565 12.767536 33.195594 7.660522 10.214029 17.236174 20.428058 27.450203 30.642087 10.214029 10.214029 21.066435 21.066435 31.91884 31.280464 10.852406 10.852406 20.428058 22.343188 28.08858 35.110724 14.682667 27.450203 22.981565 51.708521 24.896695 72.774956 1.276754 21.704811-1.276754 40.217739-8.298898 56.815536-7.022145 16.597797-17.236174 30.642087-30.00371 42.132869-12.767536 11.490783-26.173449 21.704811-38.940985 29.365333-13.405913 7.660522-25.535072 14.04429-36.387478 18.512927-10.852406 4.468638-17.874551 7.022145-21.066435 8.298898-23.619942 10.852406-41.494492 22.343188-54.262029 35.110724-12.767536 12.767536-21.066435 25.535072-24.896695 38.302608-4.468638 12.767536-5.107014 25.535072-2.553507 37.664232 2.553507 12.129159 7.660522 22.343188 15.321043 31.280464 5.107014 6.383768 11.490783 11.490783 19.151304 15.95942 7.660522 4.468638 15.95942 7.660522 24.258319 9.575652 8.298898 1.91513 15.95942 3.191884 23.619942 3.830261 7.660522 0.638377 14.04429 0 18.512927-1.91513 11.490783-1.91513 21.066435-7.022145 28.08858-15.321043 7.660522-8.298898 12.129159-17.236174 13.405913-26.173449 1.276754-9.575652-0.638377-17.236174-5.745391-23.619942C858.638606 806.269908 849.062954 803.7164 835.657041 804.354777L835.657041 804.354777zM835.657041 804.354777" p-id="15135" fill="#FFFFFF"></path></svg>